<?xml version="1.0" encoding="utf-8"?>
<!-- Generator: Adobe Illustrator 27.7.0, SVG Export Plug-In . SVG Version: 6.00 Build 0)  -->
<svg version="1.1" id="Layer_1" xmlns="http://www.w3.org/2000/svg" xmlns:xlink="http://www.w3.org/1999/xlink" x="0px" y="0px"
	 viewBox="0 0 96 90" style="enable-background:new 0 0 96 90;" xml:space="preserve">
<style type="text/css">
	.st0{fill:#131313;}
</style>
<path class="st0" d="M50.2,45.7H39.6c-2.5,0-4.6-2-4.6-4.6s2-4.6,4.6-4.6c1.2,0,2.3,0.5,3.2,1.3l0,0l0,0L50.2,45.7z M39.6,38.5
	c-1.5,0-2.7,1.2-2.7,2.7s1.2,2.7,2.7,2.7h6.2l-4.3-4.6C41,38.8,40.3,38.5,39.6,38.5L39.6,38.5z"/>
<path class="st0" d="M56.4,45.7H45.8l7.3-7.8l0,0c0.9-0.9,2-1.3,3.2-1.3c2.5,0,4.6,2,4.6,4.6S58.9,45.7,56.4,45.7L56.4,45.7z
	 M50.2,43.8h6.2c1.5,0,2.7-1.2,2.7-2.7s-1.2-2.7-2.7-2.7c-0.7,0-1.4,0.3-1.9,0.8C54.5,39.2,50.2,43.8,50.2,43.8z"/>
<rect x="25.4" y="44.8" class="st0" width="45.2" height="10.8"/>
<g>
	<rect x="28.2" y="59.3" class="st0" width="17.9" height="30.6"/>
	<rect x="49.9" y="59.3" class="st0" width="17.9" height="30.6"/>
</g>
</svg>
