<svg xmlns="http://www.w3.org/2000/svg" xml:space="preserve" width="60" height="60" viewBox="0 0 256 256"><g fill-rule="evenodd" clip-rule="evenodd"><path fill="#fff" d="M68.3 110.5h117.3v33.7H68.3z"/><path fill="#835ed5" d="M256 128c0-58.3-39.3-109.2-95.8-123.9S44.6 14.8 16.2 65.7-2.6 180.2 39.6 220.5s106.2 46.9 155.8 16.3L256 256l-19.2-60.6c12.5-20.2 19.2-43.5 19.2-67.4zm-164.6 9.2c-5 0-9.1-4.1-9.1-9.1s4.1-9.1 9.1-9.1 9.1 4.1 9.1 9.1c.1 5-4 9.1-9.1 9.1zm36.6 0c-5 0-9.1-4.1-9.1-9.1s4.1-9.1 9.1-9.1 9.1 4.1 9.1 9.1-4 9.1-9.1 9.1zm36.6 0c-5 0-9.1-4.1-9.1-9.1s4.1-9.1 9.1-9.1 9.1 4.1 9.1 9.1-4.1 9.1-9.1 9.1z"/></g></svg>