<?xml version="1.0" encoding="UTF-8"?>
<svg id="Layer_1" data-name="Layer 1" xmlns="http://www.w3.org/2000/svg" viewBox="0 0 96 90">
  <defs>
    <style>
      .cls-1 {
        stroke-dasharray: 0 0 .53 2.65;
      }

      .cls-1, .cls-2, .cls-3, .cls-4, .cls-5, .cls-6, .cls-7, .cls-8, .cls-9, .cls-10 {
        fill: none;
        stroke: #151415;
        stroke-linecap: round;
        stroke-linejoin: round;
        stroke-width: .64px;
      }

      .cls-11 {
        fill: #231f20;
      }

      .cls-3 {
        stroke-dasharray: 0 0 .3 1.52;
      }

      .cls-4 {
        stroke-dasharray: 0 0 .46 2.32;
      }

      .cls-5 {
        stroke-dasharray: 0 0 .52 2.58;
      }

      .cls-6 {
        stroke-dasharray: 0 0 .49 2.46;
      }

      .cls-7 {
        stroke-dasharray: 0 0 .53 2.63;
      }

      .cls-8 {
        stroke-dasharray: 0 0 .52 2.61;
      }

      .cls-9 {
        stroke-dasharray: 0 0 .5 2.5;
      }

      .cls-10 {
        stroke-dasharray: 0 0 .55 2.75;
      }
    </style>
  </defs>
  <path class="cls-11" d="m47.07,81.35s.1,0,.1-.03h2.28s.11.03.11.03c.07,0,.13.06.13.13,0,.08-.06.14-.13.14h-.07l.58.48v1.81c0,.06.05.11.11.11h7.34s.08.03.08.08v5.7s-.03.08-.08.08h-18.43s-.07-.04-.07-.08v-5.71s.03-.07.07-.07h7.35c.06,0,.11-.05.11-.11v-1.81l.62-.48h-.1c-.07,0-.13-.06-.13-.14,0-.07.06-.13.13-.13Zm3-.84v-.67l.15-.43v-6l-.46-.83h-.1v-31.04h.1l.46-.82v-12.04h-3.81v12.04l.45.82h.1v31.04h-.1l-.46.82v6.01l.15.43v.67h.51c.06,0,.11.05.11.12v.25s-.1.03-.1.03c-.07,0-.13.06-.13.14,0,.07.06.13.13.13,0,0,.1,0,.1.03v.11h2.28v-.11s.11-.03.11-.03c.07,0,.13-.06.13-.13,0-.08-.06-.14-.13-.14,0,0-.11,0-.11-.03v-.26c0-.06.05-.11.11-.11h.51Zm-5.67-53.45h.7s.3,0,.3,0m-1.3,0v.69s.03.06.06.06l2,.04.09.19h.16v.64h3.81v-.64h.15l.08-.21,2.02-.02s.06-.03.06-.06v-.69h0s.08-12.69.08-12.69v-1.27s-.34-.13-.34-.13h-.09l.57-.42.29-.36.13-.03.08-.14s0-.04-.03-.05v-.28s0-.04-.28-.44c-.01-.75-.28-1.35-.43-1.63-.06-.12-.11-.18-.11-.18-.01-.03-.03-.05-.04-.06v-3.91l-.22-.2V1.01c0-.49-.4-.89-.89-.89h-5.87c-.49,0-.89.4-.89.9v4.25l-.23.2v3.9c-.57.87-.58,1.9-.58,1.9l-.27.44v.24s-.03.05-.02.07h0s.06.12.06.12c0,0,0,.01.02.01l.13.05.27.35.49.34s.07.06.11.08h-.11l-.34.13v1.26s.08,12.7.08,12.7m8.13,0s-2.23,0-2.23,0v-.33s-.12,0-.12,0v-.37l.1-.07-.08-.1h-.1v-4.83h1.22s-.65-.67-.65-.67v-.08h.06s0-.33,0-.33l-.04-.12v-5.06h.08s.05-.4.16-.53h1.67s-.07,12.49-.07,12.49Zm-7.9-12.49h1.67c.11.13.16.53.16.53h.08v5.06l-.04.12v.33h.06v.08l-.65.67h1.22v4.83h-.1l-.08.1.1.07v.37h-.12v.33s-2.23,0-2.23,0c0,0-.07-12.49-.07-12.49Z"/>
  <path class="cls-9" d="m24.2,69.4v.98l.29.65v1.21c-.23.03-.42.15-.57.31h0s.08.05.08.09c0,.05-.04.08-.08.08h-.04c-.05,0-.09.04-.09.09s.04.09.09.09h.04s.08.04.08.08-.04.08-.08.08h-.04c-.05,0-.09.04-.09.09s.04.09.09.09h.04s.08.04.08.08-.04.08-.08.08h-.04c-.05,0-.09.04-.09.09s.04.09.09.09h.04s.08.04.08.08-.04.08-.08.08h.57v2.04h5.8c.08,0,.14.06.14.14v6.31c0,.13-.1.23-.23.23h-15.18c-.13,0-.23-.1-.23-.23v-6.31c0-.08.06-.14.14-.14h5.8v-2.04h.57s-.08-.04-.08-.08.04-.08.08-.08h.04c.05,0,.09-.04.09-.09s-.04-.09-.09-.09h-.04s-.08-.04-.08-.08.04-.08.08-.08h.04c.05,0,.09-.04.09-.09s-.04-.09-.09-.09h-.04s-.08-.04-.08-.08.04-.08.08-.08h.04c.05,0,.09-.04.09-.09s-.04-.09-.09-.09h-.04s-.08-.04-.08-.08.04-.08.08-.08h0c-.14-.17-.35-.29-.58-.32v-1.21l.29-.65v-4.13l.59-1.07h.08v-31.5h-.08l-.59-1.07v-1.98h0v-2.77h0s-1.24-2.7-1.24-2.7c-.11-.05-.2-.13-.29-.23-.24-.28-.28-.67-.12-.96-.07-.14-.14-.29-.19-.44-.32-.08-.58-.36-.63-.73-.05-.37.13-.71.42-.87.02-.16.04-.32.08-.48-.23-.24-.29-.62-.12-.96.16-.34.5-.53.83-.5.1-.13.21-.25.33-.36-.04-.24.03-.49.2-.69,0-.01,0-.03,0-.19v-.21h-.06c-.07,0-.12-.05-.12-.12v-4.51l-.17-.35v-2.63l.2-.2v-.87h4.98v.87l.2.2v2.63l-.17.35v4.51c0,.07-.05.12-.12.12h-.06v.21c0,.16,0,.18,0,.19.17.19.24.45.2.69.12.11.23.23.33.36.33-.03.66.16.83.5.16.34.1.72-.12.96.04.16.06.32.08.48.26.14.43.42.43.75,0,.04,0,.08,0,.12-.05.37-.31.66-.63.73-.06.15-.12.3-.19.44.16.29.12.67-.12.96-.08.1-.18.17-.29.23l-1.24,2.7v4.75l-.59,1.07h-.08v31.5h.08l.59,1.07v3.15Z"/>
  <g>
    <line class="cls-2" x1="70.21" y1="20.41" x2="70.21" y2="20.66"/>
    <line class="cls-6" x1="70.23" y1="23.12" x2="70.26" y2="27.8"/>
    <polyline class="cls-2" points="70.27 29.03 70.27 29.28 70.52 29.28"/>
    <polyline class="cls-2" points="71.91 29.28 72.16 29.28 72.16 29.53"/>
    <line class="cls-4" x1="72.16" y1="31.84" x2="72.16" y2="39.03"/>
    <polyline class="cls-2" points="72.42 40.12 72.54 40.33 72.61 40.33 72.61 40.58"/>
    <line class="cls-8" x1="72.61" y1="43.19" x2="72.61" y2="66.94"/>
    <polyline class="cls-2" points="72.61 68.25 72.61 68.5 72.54 68.5 72.42 68.71"/>
    <line class="cls-10" x1="72.16" y1="71.4" x2="72.16" y2="73.32"/>
    <polyline class="cls-2" points="72.28 74.67 72.28 74.92 72.53 74.92"/>
    <path class="cls-5" d="m72.28,77.21v.44s0,.12-.15.12h-5.89s-.05.02-.05.04v4.68s.02.04.05.04h14.92s.05-.02.05-.04v-4.68s-.02-.04-.05-.04h-5.89c-.15,0-.15-.1-.15-.12v-1.46l-.1-.24"/>
    <polyline class="cls-2" points="74.86 74.92 75.11 74.92 75.11 74.67"/>
    <line class="cls-10" x1="75.24" y1="71.95" x2="75.24" y2="70.02"/>
    <polyline class="cls-2" points="74.98 68.71 74.86 68.5 74.78 68.5 74.78 68.25"/>
    <line class="cls-8" x1="74.78" y1="65.64" x2="74.78" y2="41.89"/>
    <polyline class="cls-2" points="74.78 40.58 74.78 40.33 74.86 40.33 74.98 40.12"/>
    <line class="cls-4" x1="75.24" y1="37.87" x2="75.24" y2="30.68"/>
    <polyline class="cls-2" points="75.24 29.53 75.24 29.28 75.49 29.28"/>
    <polyline class="cls-2" points="76.87 29.28 77.12 29.28 77.12 29.03"/>
    <path class="cls-1" d="m77.14,26.37l.04-4.87h0s0-1.09,0-1.09l.5-.71v-.38s-.02-.06-.06-.11l-.17-.24v-.25s0-.13-.05-.34"/>
    <path class="cls-2" d="m76.86,17.18s-.07-.09-.11-.14c-.02-.02-.03-.04-.05-.06h0v-.25"/>
    <path class="cls-7" d="m76.45,14.12l-.02-.26v-3.04s.05-.93-1.01-.93h-3.43c-1.06,0-1.01.93-1.01.93v3.04l-.14,1.57"/>
    <path class="cls-2" d="m70.71,16.73v.25h-.02s-.03.04-.05.06c-.04.05-.07.09-.11.14"/>
    <path class="cls-3" d="m69.95,18.58c0,.09,0,.15,0,.15v.25s-.18.24-.18.24c-.04.04-.06.08-.06.11v.25"/>
    <line class="cls-2" x1="70.07" y1="20.21" x2="70.21" y2="20.41"/>
  </g>
</svg>